<?xml version="1.0" encoding="utf-8"?>
<!-- Generator: Adobe Illustrator 23.1.1, SVG Export Plug-In . SVG Version: 6.00 Build 0)  -->
<svg version="1.1" id="Layer_1" xmlns="http://www.w3.org/2000/svg" xmlns:xlink="http://www.w3.org/1999/xlink" x="0px" y="0px"
	 viewBox="0 0 677 274" style="enable-background:new 0 0 677 274;" xml:space="preserve">
<style type="text/css">
	.st0{clip-path:url(#SVGID_2_);fill:#FFFFFF;}
	.st1{font-family:'HelveticaNeue-Bold';}
	.st2{font-size:12px;}
	.st3{fill:#FFFFFF;}
	.st4{fill:none;stroke:#262626;stroke-width:0.5;stroke-linejoin:round;stroke-miterlimit:10;}
	.st5{fill:#0072BD;}
	.st6{fill:none;stroke:#000000;stroke-width:0.5;stroke-miterlimit:10;}
	.st7{fill:none;stroke:#262626;stroke-width:0.5;stroke-linecap:square;stroke-linejoin:round;stroke-miterlimit:10;}
	.st8{fill:#262626;}
	.st9{font-family:'HelveticaNeue';}
	.st10{font-size:10px;}
	.st11{font-size:11px;}
	.st12{font-size:8px;}
</style>
<g>
	<g>
		<g>
			<defs>
				<rect id="SVGID_1_" y="-17.5" width="677" height="291.5"/>
			</defs>
			<clipPath id="SVGID_2_">
				<use xlink:href="#SVGID_1_"  style="overflow:visible;"/>
			</clipPath>
			<rect y="-17.5" class="st0" width="677" height="291.5"/>
		</g>
	</g>
	<g transform="translate(83,16)">
		<text transform="matrix(1 0 0 1 0 -17.9287)" class="st1 st2">a. Ruusuvuori Nuclei</text>
	</g>
	<g transform="matrix(0.5,0,0,0.5,89.75,20.5)">
		<g>
			<defs>
				<rect id="SVGID_3_" x="111.5" y="111.5" width="223" height="223"/>
			</defs>
			<clipPath id="SVGID_4_">
				<use xlink:href="#SVGID_3_"  style="overflow:visible;"/>
			</clipPath>
			
				<image style="overflow:visible;clip-path:url(#SVGID_4_);enable-background:new    ;" width="446" height="446" xlink:href="1E0CD1D6DC45507D.png" >
			</image>
		</g>
	</g>
	<g>
		<path class="st3" d="M387.8,243.5h223v-223h-223V243.5z"/>
	</g>
	<g transform="translate(318,16)">
		<text transform="matrix(1 0 0 1 54.55 -17.9285)" class="st1 st2">b. Histogram of pixel intensities</text>
	</g>
	<g>
		<line class="st4" x1="387.8" y1="243.5" x2="610.8" y2="243.5"/>
	</g>
	<g>
		<path class="st5" d="M393,243.5v-0.1h-3v0.1H393z M396.7,243.5v-5h-3v5H396.7z M400.4,243.5v-20h-3v20H400.4z M404.1,243.5v-44.7
			h-3v44.7H404.1z M407.8,243.5v-54.1h-3v54.1H407.8z M411.5,243.5v-99.7h-3v99.7H411.5z M415.3,243.5V117.3h-3v126.2H415.3z
			 M419,243.5v-130h-3v130H419z M422.7,243.5V82.1h-3v161.4H422.7z M426.4,243.5V76.7h-3v166.8H426.4z M430.1,243.5V40.3h-3v203.2
			H430.1z M433.8,243.5V73.3h-3v170.2H433.8z M437.6,243.5v-94.8h-3v94.8H437.6z M441.3,243.5v-18.3h-3v18.3H441.3z M445,243.5v-9.8
			h-3v9.8H445z M448.7,243.5v-9h-3v9H448.7z M452.4,243.5v-6.6h-3v6.6H452.4z M456.1,243.5V236h-3v7.5H456.1z M459.9,243.5v-6h-3v6
			H459.9z M463.6,243.5v-6.7h-3v6.7H463.6z M467.3,243.5v-6.2h-3v6.2H467.3z M471,243.5v-5.6h-3v5.6H471z M474.7,243.5v-6h-3v6
			H474.7z M478.4,243.5v-5.8h-3v5.8H478.4z M482.2,243.5v-6.6h-3v6.6H482.2z M485.9,243.5V238h-3v5.5H485.9z M489.6,243.5v-6.3h-3
			v6.3H489.6z M493.3,243.5v-5.6h-3v5.6H493.3z M497,243.5v-6.7h-3v6.7H497z M500.7,243.5v-7.2h-3v7.2H500.7z M504.5,243.5v-6.4h-3
			v6.4H504.5z M508.2,243.5V236h-3v7.5H508.2z M511.9,243.5V237h-3v6.5H511.9z M515.6,243.5v-7.4h-3v7.4H515.6z M519.3,243.5v-6.7
			h-3v6.7H519.3z M523,243.5v-6.7h-3v6.7H523z M526.8,243.5V237h-3v6.5H526.8z M530.5,243.5v-6.3h-3v6.3H530.5z M534.2,243.5v-6.6
			h-3v6.6H534.2z M537.9,243.5v-5.4h-3v5.4H537.9z M541.6,243.5v-6h-3v6H541.6z M545.3,243.5v-4.7h-3v4.7H545.3z M549.1,243.5v-5h-3
			v5H549.1z M552.8,243.5v-4.8h-3v4.8H552.8z M556.5,243.5v-3.8h-3v3.8H556.5z M560.2,243.5v-3.7h-3v3.7H560.2z M563.9,243.5v-3h-3
			v3H563.9z M567.6,243.5v-3.2h-3v3.2H567.6z M571.4,243.5v-3.6h-3v3.6H571.4z M575.1,243.5v-4h-3v4H575.1z"/>
	</g>
	<g>
		<path class="st6" d="M390,243.5v-0.1h3v0.1H390z"/>
		<path class="st6" d="M393.7,243.5v-5h3v5H393.7z"/>
		<path class="st6" d="M397.4,243.5v-20h3v20H397.4z"/>
		<path class="st6" d="M401.1,243.5v-44.7h3v44.7H401.1z"/>
		<path class="st6" d="M404.8,243.5v-54.1h3v54.1H404.8z"/>
		<path class="st6" d="M408.6,243.5v-99.7h3v99.7H408.6z"/>
		<path class="st6" d="M412.3,243.5V117.3h3v126.2H412.3z"/>
		<path class="st6" d="M416,243.5v-130h3v130H416z"/>
		<path class="st6" d="M419.7,243.5V82.1h3v161.4H419.7z"/>
		<path class="st6" d="M423.4,243.5V76.7h3v166.8H423.4z"/>
		<path class="st6" d="M427.1,243.5V40.3h3v203.2H427.1z"/>
		<path class="st6" d="M430.9,243.5V73.3h3v170.2H430.9z"/>
		<path class="st6" d="M434.6,243.5v-94.8h3v94.8H434.6z"/>
		<path class="st6" d="M438.3,243.5v-18.3h3v18.3H438.3z"/>
		<path class="st6" d="M442,243.5v-9.8h3v9.8H442z"/>
		<path class="st6" d="M445.7,243.5v-9h3v9H445.7z"/>
		<path class="st6" d="M449.4,243.5v-6.6h3v6.6H449.4z"/>
		<path class="st6" d="M453.2,243.5V236h3v7.5H453.2z"/>
		<path class="st6" d="M456.9,243.5v-6h3v6H456.9z"/>
		<path class="st6" d="M460.6,243.5v-6.7h3v6.7H460.6z"/>
		<path class="st6" d="M464.3,243.5v-6.2h3v6.2H464.3z"/>
		<path class="st6" d="M468,243.5v-5.6h3v5.6H468z"/>
		<path class="st6" d="M471.7,243.5v-6h3v6H471.7z"/>
		<path class="st6" d="M475.5,243.5v-5.8h3v5.8H475.5z"/>
		<path class="st6" d="M479.2,243.5v-6.6h3v6.6H479.2z"/>
		<path class="st6" d="M482.9,243.5V238h3v5.5H482.9z"/>
		<path class="st6" d="M486.6,243.5v-6.3h3v6.3H486.6z"/>
		<path class="st6" d="M490.3,243.5v-5.6h3v5.6H490.3z"/>
		<path class="st6" d="M494,243.5v-6.7h3v6.7H494z"/>
		<path class="st6" d="M497.8,243.5v-7.2h3v7.2H497.8z"/>
		<path class="st6" d="M501.5,243.5v-6.4h3v6.4H501.5z"/>
		<path class="st6" d="M505.2,243.5V236h3v7.5H505.2z"/>
		<path class="st6" d="M508.9,243.5V237h3v6.5H508.9z"/>
		<path class="st6" d="M512.6,243.5v-7.4h3v7.4H512.6z"/>
		<path class="st6" d="M516.3,243.5v-6.7h3v6.7H516.3z"/>
		<path class="st6" d="M520.1,243.5v-6.7h3v6.7H520.1z"/>
		<path class="st6" d="M523.8,243.5V237h3v6.5H523.8z"/>
		<path class="st6" d="M527.5,243.5v-6.3h3v6.3H527.5z"/>
		<path class="st6" d="M531.2,243.5v-6.6h3v6.6H531.2z"/>
		<path class="st6" d="M534.9,243.5v-5.4h3v5.4H534.9z"/>
		<path class="st6" d="M538.6,243.5v-6h3v6H538.6z"/>
		<path class="st6" d="M542.4,243.5v-4.7h3v4.7H542.4z"/>
		<path class="st6" d="M546.1,243.5v-5h3v5H546.1z"/>
		<path class="st6" d="M549.8,243.5v-4.8h3v4.8H549.8z"/>
		<path class="st6" d="M553.5,243.5v-3.8h3v3.8H553.5z"/>
		<path class="st6" d="M557.2,243.5v-3.7h3v3.7H557.2z"/>
		<path class="st6" d="M560.9,243.5v-3h3v3H560.9z"/>
		<path class="st6" d="M564.7,243.5v-3.2h3v3.2H564.7z"/>
		<path class="st6" d="M568.4,243.5v-3.6h3v3.6H568.4z"/>
		<path class="st6" d="M572.1,243.5v-4h3v4H572.1z"/>
	</g>
	<g>
		<line class="st7" x1="387.8" y1="243.5" x2="610.8" y2="243.5"/>
		<line class="st7" x1="387.8" y1="20.5" x2="610.8" y2="20.5"/>
		<line class="st7" x1="387.8" y1="243.5" x2="387.8" y2="241.3"/>
		<line class="st7" x1="424.9" y1="243.5" x2="424.9" y2="241.3"/>
		<line class="st7" x1="462.1" y1="243.5" x2="462.1" y2="241.3"/>
		<line class="st7" x1="499.2" y1="243.5" x2="499.2" y2="241.3"/>
		<line class="st7" x1="536.4" y1="243.5" x2="536.4" y2="241.3"/>
		<line class="st7" x1="573.6" y1="243.5" x2="573.6" y2="241.3"/>
		<line class="st7" x1="610.8" y1="243.5" x2="610.8" y2="241.3"/>
		<line class="st7" x1="387.8" y1="20.5" x2="387.8" y2="22.7"/>
		<line class="st7" x1="424.9" y1="20.5" x2="424.9" y2="22.7"/>
		<line class="st7" x1="462.1" y1="20.5" x2="462.1" y2="22.7"/>
		<line class="st7" x1="499.2" y1="20.5" x2="499.2" y2="22.7"/>
		<line class="st7" x1="536.4" y1="20.5" x2="536.4" y2="22.7"/>
		<line class="st7" x1="573.6" y1="20.5" x2="573.6" y2="22.7"/>
		<line class="st7" x1="610.8" y1="20.5" x2="610.8" y2="22.7"/>
	</g>
	<g transform="translate(387.75,247.5)">
		<text transform="matrix(1 0 0 1 -3 10)" class="st8 st9 st10">0</text>
	</g>
	<g transform="translate(424.9167,247.5)">
		<text transform="matrix(1 0 0 1 -6 10)" class="st8 st9 st10">50</text>
	</g>
	<g transform="translate(462.0833,247.5)">
		<text transform="matrix(1 0 0 1 -8.5 10)" class="st8 st9 st10">100</text>
	</g>
	<g transform="translate(499.25,247.5)">
		<text transform="matrix(1 0 0 1 -8.5 10)" class="st8 st9 st10">150</text>
	</g>
	<g transform="translate(536.4167,247.5)">
		<text transform="matrix(1 0 0 1 -8.5 10)" class="st8 st9 st10">200</text>
	</g>
	<g transform="translate(573.5833,247.5)">
		<text transform="matrix(1 0 0 1 -8.5 10)" class="st8 st9 st10">250</text>
	</g>
	<g transform="translate(610.75,247.5)">
		<text transform="matrix(1 0 0 1 -8.5 10)" class="st8 st9 st10">300</text>
	</g>
	<g transform="translate(499.2501,261)">
		<text transform="matrix(1 0 0 1 -34.5 11)" class="st8 st9 st11">Intensity, A.U.</text>
	</g>
	<g>
		<line class="st7" x1="387.8" y1="243.5" x2="387.8" y2="20.5"/>
		<line class="st7" x1="610.8" y1="243.5" x2="610.8" y2="20.5"/>
		<line class="st7" x1="387.8" y1="243.5" x2="390" y2="243.5"/>
		<line class="st7" x1="387.8" y1="215.6" x2="390" y2="215.6"/>
		<line class="st7" x1="387.8" y1="187.8" x2="390" y2="187.8"/>
		<line class="st7" x1="387.8" y1="159.9" x2="390" y2="159.9"/>
		<line class="st7" x1="387.8" y1="132" x2="390" y2="132"/>
		<line class="st7" x1="387.8" y1="104.1" x2="390" y2="104.1"/>
		<line class="st7" x1="387.8" y1="76.2" x2="390" y2="76.2"/>
		<line class="st7" x1="387.8" y1="48.4" x2="390" y2="48.4"/>
		<line class="st7" x1="387.8" y1="20.5" x2="390" y2="20.5"/>
		<line class="st7" x1="610.8" y1="243.5" x2="608.5" y2="243.5"/>
		<line class="st7" x1="610.8" y1="215.6" x2="608.5" y2="215.6"/>
		<line class="st7" x1="610.8" y1="187.8" x2="608.5" y2="187.8"/>
		<line class="st7" x1="610.8" y1="159.9" x2="608.5" y2="159.9"/>
		<line class="st7" x1="610.8" y1="132" x2="608.5" y2="132"/>
		<line class="st7" x1="610.8" y1="104.1" x2="608.5" y2="104.1"/>
		<line class="st7" x1="610.8" y1="76.2" x2="608.5" y2="76.2"/>
		<line class="st7" x1="610.8" y1="48.4" x2="608.5" y2="48.4"/>
		<line class="st7" x1="610.8" y1="20.5" x2="608.5" y2="20.5"/>
	</g>
	<g transform="translate(383.75,243.5)">
		<text transform="matrix(1 0 0 1 -6 3.5)" class="st8 st9 st10">0</text>
	</g>
	<g transform="translate(383.75,215.625)">
		<text transform="matrix(1 0 0 1 -14 3.5)" class="st8 st9 st10">0.5</text>
	</g>
	<g transform="translate(383.75,187.75)">
		<text transform="matrix(1 0 0 1 -6 3.5)" class="st8 st9 st10">1</text>
	</g>
	<g transform="translate(383.75,159.875)">
		<text transform="matrix(1 0 0 1 -14 3.5)" class="st8 st9 st10">1.5</text>
	</g>
	<g transform="translate(383.75,132)">
		<text transform="matrix(1 0 0 1 -6 3.5)" class="st8 st9 st10">2</text>
	</g>
	<g transform="translate(383.75,104.125)">
		<text transform="matrix(1 0 0 1 -14 3.5)" class="st8 st9 st10">2.5</text>
	</g>
	<g transform="translate(383.75,76.25)">
		<text transform="matrix(1 0 0 1 -6 3.5)" class="st8 st9 st10">3</text>
	</g>
	<g transform="translate(383.75,48.375)">
		<text transform="matrix(1 0 0 1 -14 3.5)" class="st8 st9 st10">3.5</text>
	</g>
	<g transform="translate(383.75,20.5)">
		<text transform="matrix(1 0 0 1 -6 3.5)" class="st8 st9 st10">4</text>
	</g>
	<g transform="translate(366.75,131.9999) rotate(-90)">
		<text transform="matrix(1 0 0 1 -42.0001 -3)" class="st8 st9 st11">Number of pixels</text>
	</g>
	<g transform="translate(396,18)">
		<text transform="matrix(1 0 0 1 -15.7398 -2.4681)" class="st8 st9 st10">x10</text>
	</g>
	<g transform="translate(408,13)">
		<text transform="matrix(1 0 0 1 -10.7398 -2.4681)" class="st8 st9 st12">5</text>
	</g>
</g>
</svg>
